PathFileType	4	(X/Y/Z)	s04c0401.trc
DataRate	CameraRate	NumFrames	NumMarkers	Units	OrigDataRate	OrigDataStartFrame	OrigNumFrames
200	200	4	50	mm	200	1500	2000
Frame#	Time	racr			lacr			c7			jug			rlel			rdr			llel			ldr			s2			lic			ric			lasi			rasi			rpsi			lpsi			rgt			lgt			rth1			rth2			rth3			rth4			rlfc			rmfc			rsh1			rsh2			rsh3			rsh4			rlmal			rmmal			rcal			rtoe			rmt5			lth1			lth2			lth4			lth3			llfc			lmfc			lsh1			lsh2			lsh3			lsh4			llmal			lmmal			lcal			ltoe			lmt5			SBIKE			LBIKE			RBIKE			
		X1	Y1	Z1	X2	Y2	Z2	X3	Y3	Z3	X4	Y4	Z4	X5	Y5	Z5	X6	Y6	Z6	X7	Y7	Z7	X8	Y8	Z8	X9	Y9	Z9	X10	Y10	Z10	X11	Y11	Z11	X12	Y12	Z12	X13	Y13	Z13	X14	Y14	Z14	X15	Y15	Z15	X16	Y16	Z16	X17	Y17	Z17	X18	Y18	Z18	X19	Y19	Z19	X20	Y20	Z20	X21	Y21	Z21	X22	Y22	Z22	X23	Y23	Z23	X24	Y24	Z24	X25	Y25	Z25	X26	Y26	Z26	X27	Y27	Z27	X28	Y28	Z28	X29	Y29	Z29	X30	Y30	Z30	X31	Y31	Z31	X32	Y32	Z32	X33	Y33	Z33	X34	Y34	Z34	X35	Y35	Z35	X36	Y36	Z36	X37	Y37	Z37	X38	Y38	Z38	X39	Y39	Z39	X40	Y40	Z40	X41	Y41	Z41	X42	Y42	Z42	X43	Y43	Z43	X44	Y44	Z44	X45	Y45	Z45	X46	Y46	Z46	X47	Y47	Z47	X48	Y48	Z48	X49	Y49	Z49	X50	Y50	Z50	
1500	7.5000	837.617775	1279.433501	-117.593611	839.851669	1241.067745	-451.863946	859.525526	1340.101255	-292.996897	802.875433	1202.154865	-284.193073	573.235338	1160.878564	40.078778	700.682685	940.009802	-77.726545	594.768521	1161.991415	-617.216351	685.876218	942.074037	-511.699949	258.922359	1278.686760	-295.884183	407.812774	1225.370782	-452.747101	408.242779	1264.434290	-132.211114	434.617024	1171.091910	-406.471146	429.967811	1195.488477	-167.348032	297.913268	1318.108383	-256.375074	300.006817	1310.551399	-333.846393	350.110977	1220.115040	-107.133616	334.705772	1139.816692	-459.528240	422.339135	1075.621557	-80.494439	483.284758	1012.005262	-80.651713	505.903688	929.680637	-76.592114	511.448341	1027.016648	-100.710565	549.021396	794.541908	-95.335606	537.168224	781.867714	-211.421637	435.633116	745.699674	-79.369579	366.799477	688.418425	-99.266167	282.279047	679.174194	-112.874442	385.033697	661.247104	-119.990614	151.941835	604.734070	-131.622765	177.531697	590.795246	-213.916471	91.368060	640.297508	-176.611589	238.154818	376.532115	-164.184512	182.953694	422.125736	-110.067398	348.283081	1048.052929	-470.460150	390.290369	971.716027	-471.566427	425.345663	981.127225	-466.373475	388.572412	883.030220	-466.265214	415.443857	720.099042	-447.957955	431.085384	692.155922	-337.074049	380.275677	596.097933	-469.872964	371.601038	511.659649	-451.645489	322.493916	437.779243	-453.237923	398.578366	504.475665	-422.513643	270.439691	299.341335	-452.470135	265.914078	301.695399	-363.294331	188.797609	304.866988	-414.564934	467.701476	184.463625	-412.793031	389.574626	176.380109	-475.695010	-185.315405	934.652459	-287.177883	-17.547417	79.176871	-485.570075	-17.487386	79.444348	-84.916861	
1501	7.5050	838.027291	1280.048275	-116.026863	839.991333	1241.030482	-450.036288	859.335020	1340.377517	-291.925138	802.996531	1202.213053	-282.393432	573.802221	1160.524035	41.256362	700.686695	939.937357	-77.726240	595.798780	1162.297968	-617.030756	685.884914	941.716293	-511.133948	258.927260	1277.374250	-298.254781	409.531366	1222.404708	-452.949108	406.723859	1265.079871	-133.074816	435.435528	1168.830381	-406.063467	428.913113	1196.028778	-167.447282	297.566020	1317.349072	-258.811466	300.473102	1308.928391	-335.984585	348.937322	1220.929937	-108.198336	334.682027	1136.706425	-459.457877	423.781874	1078.092238	-81.228058	486.703181	1015.804620	-81.504132	510.795674	934.167735	-77.138274	513.406630	1032.083557	-101.972171	556.549048	799.704366	-95.702906	543.700554	786.507097	-211.267697	443.311161	751.358300	-79.804563	374.117131	694.496729	-99.600477	289.471251	685.724122	-113.148865	392.183235	667.271776	-120.318921	158.881758	611.814491	-131.912724	184.045117	597.992038	-214.647345	97.750448	646.832700	-176.855989	249.236483	386.037588	-163.168137	191.596025	429.665562	-110.193144	345.705590	1044.745128	-470.739271	385.663269	967.355498	-471.867904	420.966016	975.831801	-466.653624	381.524135	878.653727	-466.367940	404.697914	715.514771	-448.034313	419.982404	687.392117	-336.667645	369.604342	591.330604	-469.735340	361.699238	506.760871	-451.735045	313.113271	432.583210	-453.241583	388.885333	499.827894	-422.813665	262.685803	293.410230	-452.455198	258.354260	295.436245	-363.344537	181.657289	299.430968	-414.469952	459.558401	176.577381	-412.728840	381.350550	169.121505	-475.519860	-185.334225	934.696592	-287.113514	-17.561605	79.156135	-485.568306	-17.477181	79.438364	-84.887873	
1502	7.5100	838.296013	1280.496900	-114.488432	840.163511	1240.929761	-448.124939	859.212592	1340.527771	-290.819030	803.121871	1202.131069	-280.505041	574.275528	1160.009896	42.502350	700.669419	939.832561	-77.616362	596.852583	1162.567636	-616.700276	685.922553	941.330190	-510.346634	259.010762	1276.071862	-300.662670	411.340872	1219.345994	-453.040473	405.173616	1265.698252	-133.909541	436.219371	1166.403358	-405.726559	427.888355	1196.487864	-167.494602	297.325492	1316.411570	-261.391902	300.948657	1307.142436	-338.396021	347.686009	1221.748374	-109.299701	334.671371	1133.539467	-459.409560	425.350266	1081.260002	-81.325795	489.587475	1019.779694	-82.434655	515.678497	938.822066	-77.771665	516.002486	1036.740747	-102.798465	564.071705	804.992171	-96.186049	551.628082	791.458478	-211.361784	451.078408	757.005511	-80.267032	381.638152	700.336722	-99.996475	296.951896	691.928719	-113.390769	399.555876	673.072943	-120.747519	166.047280	618.353026	-132.208480	191.567573	604.487932	-214.547962	104.345933	652.840101	-176.941712	256.278951	392.153430	-164.662087	200.576044	436.778734	-110.514715	343.241908	1041.747274	-471.054232	381.216178	963.380082	-472.326460	416.721475	970.944633	-466.975470	374.790253	874.810732	-466.691080	394.257519	711.345011	-448.054213	408.367058	683.318183	-336.797273	359.053670	587.129839	-469.686587	351.872613	502.477464	-451.809836	303.908508	427.885128	-453.215827	379.121948	495.830437	-423.286460	254.766005	288.187228	-452.307198	250.500137	289.922132	-363.482793	174.296289	294.632853	-414.217535	451.073323	169.149303	-412.665403	372.761758	162.453618	-475.379959	-185.519154	934.654840	-287.241905	-17.561470	79.165024	-485.559055	-17.462337	79.406074	-84.895496	
1503	7.5150	838.541416	1280.822900	-112.872585	840.353434	1240.833088	-446.175519	858.871136	1340.599839	-289.726710	803.109484	1202.033324	-278.736538	574.632718	1159.513554	43.746485	700.672024	939.728483	-77.370253	597.834496	1162.808768	-616.257834	685.931587	941.042611	-509.512575	258.861602	1275.120670	-303.491526	413.224386	1216.153549	-452.917092	403.590570	1266.383486	-134.674096	437.010505	1163.572305	-405.259715	426.670359	1197.063112	-167.582113	297.137535	1315.361384	-264.055702	301.290275	1305.302164	-341.173077	346.455338	1222.613444	-110.291092	334.961209	1130.621619	-459.446243	427.079908	1083.537377	-82.686829	492.536193	1023.780960	-84.037067	520.472819	943.527627	-78.531491	518.666829	1041.467073	-103.648833	571.613675	810.350935	-96.771721	558.906922	796.492548	-212.408564	458.851590	762.455677	-80.859433	389.279649	705.987825	-100.441741	304.564299	697.762821	-113.656480	407.062699	678.685702	-121.299058	173.513437	624.300884	-132.383656	198.915811	610.711201	-214.785703	111.017229	658.177628	-177.293795	265.855785	399.106779	-164.938083	209.667795	443.147587	-110.842805	340.891753	1039.208614	-471.417520	376.944292	959.891980	-472.852810	412.630728	966.578653	-467.264680	368.192956	871.499977	-467.639957	383.685572	707.782065	-448.375865	396.661389	679.896021	-337.290055	348.570541	583.094048	-469.459614	342.228223	498.478454	-451.900307	294.748989	423.595769	-453.125976	369.760585	491.791638	-423.115758	246.641370	283.544947	-452.143121	242.645052	284.943750	-363.525393	166.713324	290.598436	-413.926481	442.321997	162.195792	-412.551340	363.846079	156.323164	-475.238627	-185.511214	934.649051	-287.232019	-17.561133	79.157656	-485.566936	-17.488459	79.438254	-84.898367	
